<?xml version="1.0" standalone="no"?>
<!DOCTYPE svg PUBLIC "-//W3C//DTD SVG 1.1//EN" "http://www.w3.org/Graphics/SVG/1.1/DTD/svg11.dtd" >
<svg xmlns="http://www.w3.org/2000/svg" xmlns:xlink="http://www.w3.org/1999/xlink" version="1.1">
<metadata>
Created by FontForge 20181014 at Thu May 13 08:20:54 2004
 By convertio
Copyright (c) 1990-2000 ParaType, Inc. All Rights Reserved. ITC Avant Garde Gothic is a registered trade mark of International Typeface Corporation.
</metadata>
<defs>
<font id="AvantGardeGothicC-Bold" horiz-adv-x="560" >
  <font-face 
    font-family="AvantGardeGothicC"
    font-weight="700"
    font-stretch="normal"
    units-per-em="1000"
    panose-1="0 0 8 0 0 0 0 0 0 0"
    ascent="785"
    descent="-215"
    x-height="554"
    cap-height="740"
    bbox="-479 -215 1248 980"
    underline-thickness="50"
    underline-position="-100"
    stemh="118"
    stemv="133"
    unicode-range="U+0020-2122"
  />
<missing-glyph horiz-adv-x="233" 
 />
    <glyph glyph-name=".notdef" horiz-adv-x="233" 
 />
    <glyph glyph-name="space" unicode=" " horiz-adv-x="233" 
 />
    <glyph glyph-name="space" unicode="&#xa0;" horiz-adv-x="233" 
 />
    <glyph glyph-name="exclam" unicode="!" horiz-adv-x="280" 
d="M73 0v127h133v-127h-133zM73 188v552h133v-552h-133z" />
    <glyph glyph-name="quotedbl" unicode="&#x22;" horiz-adv-x="360" 
d="M75 514v226h75v-226h-75zM210 514v226h75v-226h-75z" />
    <glyph glyph-name="numbersign" unicode="#" 
d="M336 0h-90l48 233h-86l-48 -233h-90l48 233h-114l20 98h114l19 92h-114l19 98h114l45 219h90l-45 -219h86l45 219h90l-45 -219h114l-19 -98h-114l-19 -92h114l-20 -98h-114zM314 331l19 92h-86l-19 -92h86z" />
    <glyph glyph-name="dollar" unicode="$" 
d="M221 -85v133c-85 19 -162 96 -162 189v12h133c0 -48 37 -86 86 -86c53 0 86 39 86 87c0 64 -60 86 -119 104c-55 17 -157 50 -157 188c0 89 48 160 133 182v131h125v-131c77 -21 125 -91 125 -170h-125c-1 32 -25 60 -66 60c-42 0 -67 -32 -67 -66c0 -61 62 -77 104 -89
c55 -16 177 -58 177 -210c0 -100 -60 -176 -148 -201v-133h-125z" />
    <glyph glyph-name="percent" unicode="%" horiz-adv-x="860" 
d="M223 0l306 740h102l-306 -740h-102zM21 573c0 99 80 180 180 180c98 0 179 -80 179 -180s-81 -180 -179 -180c-100 0 -180 81 -180 180zM132 573c0 -36 31 -69 68 -69c36 0 69 31 69 69s-32 69 -68 69c-37 0 -69 -32 -69 -69zM475 162c0 100 80 180 180 180
s180 -80 180 -180s-80 -180 -180 -180s-180 80 -180 180zM586 162c0 -38 31 -69 69 -69s69 31 69 69s-31 69 -69 69s-69 -31 -69 -69z" />
    <glyph glyph-name="ampersand" unicode="&#x26;" horiz-adv-x="680" 
d="M513 436h147l-127 -223l131 -142l-97 -85l-101 106l-11 -16c-25 -36 -72 -94 -174 -94c-137 0 -246 94 -246 233c0 118 77 183 139 213c-27 26 -62 71 -62 134c0 109 81 191 188 191c104 0 189 -77 189 -182c0 -95 -63 -153 -116 -182l68 -76zM258 322l-20 -9
c-29 -13 -70 -45 -70 -104c0 -55 41 -101 101 -101c56 0 84 49 96 71l8 14zM285 485l4 -4c32 12 74 37 74 83c0 32 -19 63 -64 63c-47 0 -60 -39 -60 -62c0 -30 23 -57 46 -80z" />
    <glyph glyph-name="quotesingle" unicode="'" horiz-adv-x="220" 
d="M74 514v226h76v-226h-76z" />
    <glyph glyph-name="parenleft" unicode="(" horiz-adv-x="380" 
d="M349 740v-139c-127 -99 -138 -240 -138 -295s11 -196 138 -295v-139c-195 79 -275 281 -275 434s80 355 275 434z" />
    <glyph glyph-name="parenright" unicode=")" horiz-adv-x="380" 
d="M31 -128v139c127 99 138 240 138 295s-11 196 -138 295v139c195 -79 275 -281 275 -434s-80 -355 -275 -434z" />
    <glyph glyph-name="asterisk" unicode="*" horiz-adv-x="440" 
d="M371 640v-70l-102 6l56 -84l-56 -36l-47 92l-44 -92l-62 30l54 91l-100 -7v69l100 -6l-54 89l61 30l45 -90l46 91l57 -35l-54 -85z" />
    <glyph glyph-name="plus" unicode="+" horiz-adv-x="600" 
d="M242 379v194h116v-194h194v-116h-194v-194h-116v194h-194v116h194z" />
    <glyph glyph-name="comma" unicode="," horiz-adv-x="280" 
d="M73 0v133h133v-128c0 -29 2 -74 -36 -109c-24 -22 -60 -35 -95 -36v67c31 0 57 20 57 56v17h-59z" />
    <glyph glyph-name="hyphenminus" horiz-adv-x="420" 
d="M71 377h278v-118h-278v118z" />
    <glyph glyph-name="period" unicode="." horiz-adv-x="280" 
d="M73 0v133h133v-133h-133z" />
    <glyph glyph-name="slash" unicode="/" horiz-adv-x="460" 
d="M26 -128l323 868h94l-323 -868h-94z" />
    <glyph glyph-name="zero" unicode="0" 
d="M32 248v239c0 165 96 266 248 266s248 -101 248 -266v-239c0 -165 -96 -266 -248 -266s-248 101 -248 266zM395 248v239c0 129 -79 140 -115 140s-115 -11 -115 -140v-239c0 -129 79 -140 115 -140s115 11 115 140z" />
    <glyph glyph-name="one" unicode="1" 
d="M307 0v554l-152 -199l-105 80l237 305h153v-740h-133z" />
    <glyph glyph-name="two" unicode="2" 
d="M42 0v126l255 237c42 39 90 79 90 152c0 56 -32 112 -106 112c-85 0 -119 -77 -114 -143h-133c-5 132 69 269 243 269c138 0 243 -92 243 -240c0 -88 -41 -163 -151 -261l-141 -126h292v-126h-478z" />
    <glyph glyph-name="three" unicode="3" 
d="M202 560h-133c-1 112 79 193 199 193c108 0 197 -75 197 -197c0 -34 -10 -90 -64 -132c78 -32 117 -107 117 -197c0 -148 -113 -245 -252 -245c-140 0 -243 102 -251 237h133c6 -55 44 -111 119 -111c69 0 118 53 118 120c0 126 -119 126 -145 126h-23v126h19
c23 0 96 2 96 77c0 39 -24 70 -62 70c-33 0 -69 -21 -68 -67z" />
    <glyph glyph-name="four" unicode="4" 
d="M319 0v110h-319v109l340 521h112v-504h78v-126h-78v-110h-133zM319 236v278l-177 -278h177z" />
    <glyph glyph-name="five" unicode="5" 
d="M45 352l70 388h341l-7 -126h-235l-23 -137c14 7 44 21 92 21c145 0 237 -120 237 -257c0 -147 -106 -259 -255 -259c-147 0 -240 108 -253 237h133c10 -62 53 -111 119 -111c72 0 123 52 123 135c0 73 -49 129 -124 129c-34 0 -74 -16 -99 -53z" />
    <glyph glyph-name="six" unicode="6" 
d="M287 740h157l-165 -252c13 2 24 3 37 3c118 0 218 -93 218 -246c0 -147 -100 -263 -255 -263c-151 0 -257 112 -257 264c0 46 12 107 54 171zM278 371c-77 0 -123 -59 -123 -130c0 -76 47 -133 123 -133s123 57 123 133c0 71 -46 130 -123 130z" />
    <glyph glyph-name="seven" unicode="7" 
d="M85 0l276 614h-296v126h435v-126l-267 -614h-148z" />
    <glyph glyph-name="eight" unicode="8" 
d="M155 411c-53 35 -74 93 -74 139c0 92 61 203 199 203c116 0 199 -86 199 -203c0 -69 -37 -113 -74 -139c55 -25 121 -82 121 -190c0 -145 -109 -239 -246 -239c-136 0 -246 94 -246 239c0 93 50 158 121 190zM280 341c-64 0 -113 -52 -113 -118c0 -65 48 -115 113 -115
s113 50 113 115c0 66 -49 118 -113 118zM281 627c-45 0 -79 -34 -79 -80s34 -80 79 -80c44 0 77 34 77 80s-33 80 -77 80z" />
    <glyph glyph-name="nine" unicode="9" 
d="M269 0h-157l169 251c-12 -2 -26 -3 -41 -3c-116 0 -218 95 -218 244c0 147 100 261 255 261c152 0 257 -110 257 -262c0 -92 -40 -151 -69 -195zM278 368c77 0 123 58 123 128c0 75 -47 131 -123 131c-77 0 -123 -56 -123 -131c0 -85 60 -128 123 -128z" />
    <glyph glyph-name="colon" unicode=":" horiz-adv-x="280" 
d="M73 0v133h133v-133h-133zM73 369v133h133v-133h-133z" />
    <glyph glyph-name="semicolon" unicode=";" horiz-adv-x="280" 
d="M73 0v133h133v-128c0 -29 2 -74 -36 -109c-24 -22 -60 -35 -95 -36v67c31 0 57 20 57 56v17h-59zM73 369v133h133v-133h-133z" />
    <glyph glyph-name="less" unicode="&#x3c;" horiz-adv-x="600" 
d="M190 316l362 -163v-111l-509 225v98l509 225v-111z" />
    <glyph glyph-name="equal" unicode="=" horiz-adv-x="600" 
d="M552 473v-115h-504v115h504zM552 278v-115h-504v115h504z" />
    <glyph glyph-name="greater" unicode="&#x3e;" horiz-adv-x="600" 
d="M410 316l-362 163v111l509 -225v-98l-509 -225v111z" />
    <glyph glyph-name="question" unicode="?" 
d="M194 0v127h133v-127h-133zM171 522h-133c-1 113 70 231 226 231c162 0 227 -112 227 -231c0 -94 -50 -127 -101 -178c-33 -32 -67 -77 -63 -156h-133c-6 109 36 172 74 210c46 46 90 66 90 126c0 56 -30 103 -94 103c-59 0 -94 -49 -93 -105z" />
    <glyph glyph-name="at" unicode="@" horiz-adv-x="740" 
d="M564 96l36 -56c-74 -48 -158 -58 -213 -58c-225 0 -384 161 -384 385c0 225 158 386 389 386c183 0 353 -108 353 -331c0 -172 -120 -273 -220 -273c-38 0 -66 19 -80 48c-45 -45 -104 -48 -118 -48c-67 0 -166 45 -166 180c0 124 82 234 208 234c80 0 113 -44 124 -60
l11 51h96l-54 -277c-1 -3 -3 -19 -3 -25c0 -2 1 -5 2 -7c2 -3 7 -8 18 -8c50 0 106 75 106 186c0 180 -142 260 -280 260c-181 0 -310 -134 -310 -316c0 -194 145 -315 319 -315c65 0 121 20 166 44zM361 256c28 0 60 15 78 36c13 15 26 41 26 77c0 66 -42 87 -76 87
c-38 0 -106 -29 -106 -115c0 -50 29 -85 78 -85z" />
    <glyph glyph-name="A" unicode="A" horiz-adv-x="740" 
d="M7 0l308 740h110l308 -740h-151l-76 191h-272l-76 -191h-151zM286 324h168l-84 216z" />
    <glyph glyph-name="B" unicode="B" horiz-adv-x="580" 
d="M68 0v740h178c46 0 257 -1 257 -195c0 -92 -61 -130 -81 -141c80 -27 126 -96 126 -179c0 -107 -58 -225 -295 -225h-185zM205 133h89c16 0 117 1 117 93c0 28 -10 96 -117 96h-89v-189zM205 455h64c90 0 97 57 97 76c0 72 -67 76 -97 76h-64v-152z" />
    <glyph glyph-name="C" unicode="C" horiz-adv-x="780" 
d="M760 528h-156c-37 47 -98 92 -186 92c-148 0 -251 -120 -251 -250c0 -139 110 -255 252 -255c66 0 132 26 178 86h159c-61 -130 -180 -219 -341 -219c-259 0 -385 218 -385 388c0 165 125 383 387 383c153 0 281 -83 343 -225z" />
    <glyph glyph-name="D" unicode="D" horiz-adv-x="700" 
d="M68 0v740h205c340 0 397 -230 397 -374c0 -79 -20 -366 -394 -366h-208zM205 133h67c75 0 261 9 261 233c0 234 -193 241 -268 241h-60v-474z" />
    <glyph glyph-name="E" unicode="E" horiz-adv-x="520" 
d="M68 0v740h397v-133h-260v-171h249v-133h-249v-170h260v-133h-397z" />
    <glyph glyph-name="F" unicode="F" horiz-adv-x="480" 
d="M68 0v740h376v-133h-239v-171h228v-133h-228v-303h-137z" />
    <glyph glyph-name="G" unicode="G" horiz-adv-x="840" 
d="M336 377h482c-2 -176 -110 -395 -393 -395c-269 0 -395 205 -395 383s134 388 393 388c170 0 303 -86 358 -231h-164c-57 94 -159 98 -194 98c-173 0 -256 -134 -256 -250c0 -126 92 -255 262 -255c90 0 176 41 216 133h-309v129z" />
    <glyph glyph-name="H" unicode="H" horiz-adv-x="680" 
d="M68 0v740h137v-297h270v297h137v-740h-137v310h-270v-310h-137z" />
    <glyph glyph-name="I" unicode="I" horiz-adv-x="280" 
d="M71 0v740h137v-740h-137z" />
    <glyph glyph-name="J" unicode="J" horiz-adv-x="480" 
d="M412 740v-522c0 -45 -1 -236 -199 -236c-110 0 -203 79 -206 188h137c4 -34 23 -55 63 -55c67 0 68 57 68 94v531h137z" />
    <glyph glyph-name="K" unicode="K" horiz-adv-x="620" 
d="M68 0v740h137v-321l230 321h164l-279 -364l279 -376h-164l-230 324v-324h-137z" />
    <glyph glyph-name="L" unicode="L" horiz-adv-x="440" 
d="M68 0v740h137v-607h226v-133h-363z" />
    <glyph glyph-name="M" unicode="M" horiz-adv-x="900" 
d="M68 0v740h186l196 -566l196 566h186v-740h-137v554l-187 -554h-116l-187 554v-554h-137z" />
    <glyph glyph-name="N" unicode="N" horiz-adv-x="740" 
d="M68 0v740h137l330 -500v500h137v-740h-137l-330 500v-500h-137z" />
    <glyph glyph-name="O" unicode="O" horiz-adv-x="840" 
d="M420 753c221 0 390 -173 390 -387s-170 -384 -390 -384s-390 170 -390 384s169 387 390 387zM419 115c147 0 254 116 254 254s-108 251 -253 251s-253 -113 -253 -251c0 -140 109 -254 252 -254z" />
    <glyph glyph-name="P" unicode="P" 
d="M68 0v740h207c237 0 265 -161 265 -231c0 -93 -50 -229 -265 -229h-70v-280h-137zM205 607v-194h81c36 0 117 6 117 97s-81 97 -117 97h-81z" />
    <glyph glyph-name="Q" unicode="Q" horiz-adv-x="840" 
d="M826 105v-123c-45 -1 -123 5 -192 56c-83 -49 -166 -56 -212 -56c-214 0 -392 167 -392 383c0 181 127 388 387 388c222 0 393 -151 393 -388c0 -123 -48 -198 -85 -240c16 -9 47 -22 101 -20zM211 224c57 -82 152 -109 224 -109c24 0 53 6 84 24c-73 57 -164 97 -240 97
c-25 0 -46 -4 -68 -12zM169 334c35 9 65 13 102 13c158 0 275 -78 345 -143c18 19 57 67 57 159c0 120 -83 257 -251 257c-149 0 -255 -108 -255 -246c0 -13 0 -27 2 -40z" />
    <glyph glyph-name="R" unicode="R" horiz-adv-x="580" 
d="M68 0v740h214c249 0 278 -164 278 -235c0 -118 -79 -220 -200 -232l208 -273h-169l-192 273h-2v-273h-137zM205 607v-220h81c32 0 137 3 137 110s-105 110 -137 110h-81z" />
    <glyph glyph-name="S" unicode="S" horiz-adv-x="520" 
d="M14 208h143c3 -58 47 -93 99 -93c60 0 100 40 100 93c0 75 -64 103 -108 118c-24 8 -49 15 -72 25c-112 47 -135 134 -135 192c0 97 75 210 220 210c141 0 209 -108 214 -210h-141c0 37 -23 77 -77 77c-55 0 -79 -38 -79 -78c0 -58 54 -77 95 -90c24 -8 47 -15 70 -24
c35 -14 150 -65 150 -212c0 -131 -99 -234 -240 -234c-110 0 -238 75 -239 226z" />
    <glyph glyph-name="T" unicode="T" horiz-adv-x="420" 
d="M142 0v607h-137v133h411v-133h-137v-607h-137z" />
    <glyph glyph-name="U" unicode="U" horiz-adv-x="640" 
d="M68 740h137v-467c0 -60 6 -158 116 -158c109 0 114 99 114 158v467h137v-462c0 -210 -116 -296 -252 -296c-103 0 -252 52 -252 296v462z" />
    <glyph glyph-name="V" unicode="V" horiz-adv-x="700" 
d="M293 0l-286 740h144l199 -563l199 563h144l-286 -740h-114z" />
    <glyph glyph-name="W" unicode="W" horiz-adv-x="900" 
d="M220 0l-215 740h140l129 -518l126 518h100l126 -518l129 518h140l-215 -740h-109l-121 489l-121 -489h-109z" />
    <glyph glyph-name="X" unicode="X" horiz-adv-x="680" 
d="M5 0l255 370l-255 370h160l175 -257l176 257h160l-256 -370l256 -370h-160l-176 256l-175 -256h-160z" />
    <glyph glyph-name="Y" unicode="Y" horiz-adv-x="620" 
d="M242 0v273l-243 467h150l162 -341l161 341h150l-243 -467v-273h-137z" />
    <glyph glyph-name="Z" unicode="Z" horiz-adv-x="500" 
d="M18 0v133l282 474h-266v133h430v-133l-282 -474h298v-133h-462z" />
    <glyph glyph-name="bracketleft" unicode="[" horiz-adv-x="320" 
d="M292 15v-143c-69 13 -127 49 -164 99c-52 71 -54 151 -54 203v264c0 52 2 132 54 203c37 50 95 86 164 99v-143c-60 -20 -81 -63 -81 -159v-264c0 -96 21 -139 81 -159z" />
    <glyph glyph-name="backslash" unicode="\" horiz-adv-x="640" 
d="M399 0l-315 740h104l315 -740h-104z" />
    <glyph glyph-name="bracketright" unicode="]" horiz-adv-x="320" 
d="M28 597v143c69 -13 127 -49 164 -99c52 -71 54 -151 54 -203v-264c0 -52 -2 -132 -54 -203c-37 -50 -95 -86 -164 -99v143c60 20 81 63 81 159v264c0 96 -21 139 -81 159z" />
    <glyph glyph-name="asciicircum" unicode="^" horiz-adv-x="600" 
d="M300 594l-156 -414h-134l230 560h120l230 -560h-134z" />
    <glyph glyph-name="underscore" unicode="_" horiz-adv-x="500" 
d="M500 -138h-500v90h500v-90z" />
    <glyph glyph-name="grave" unicode="`" horiz-adv-x="420" 
d="M124 840l222 -135l-53 -92l-226 125z" />
    <glyph glyph-name="a" unicode="a" horiz-adv-x="660" 
d="M606 554v-554h-122v75h-2c-64 -88 -156 -93 -185 -93c-141 0 -271 111 -271 290c0 174 122 300 275 300c79 0 141 -33 181 -96h2v78h122zM322 446c-96 0 -163 -74 -163 -174c0 -94 66 -164 163 -164c95 0 159 69 159 170c0 96 -63 168 -159 168z" />
    <glyph glyph-name="b" unicode="b" horiz-adv-x="660" 
d="M54 740h133v-244h2c42 49 101 76 169 76c193 0 276 -154 276 -295c0 -136 -85 -295 -272 -295c-70 0 -140 27 -184 93h-2v-75h-122v740zM344 446c-91 0 -165 -68 -165 -162c0 -98 68 -176 165 -176c95 0 157 73 157 168c0 97 -61 170 -157 170z" />
    <glyph glyph-name="c" unicode="c" horiz-adv-x="640" 
d="M460 180h150c-41 -117 -136 -198 -274 -198c-208 0 -306 161 -306 299c0 129 94 291 301 291c140 0 242 -82 279 -202h-150c-26 51 -73 76 -131 76c-106 0 -166 -78 -166 -167c0 -95 64 -171 166 -171c23 0 94 4 131 72z" />
    <glyph glyph-name="d" unicode="d" horiz-adv-x="660" 
d="M606 740v-740h-122v75h-2c-35 -49 -93 -93 -182 -93c-148 0 -274 124 -274 293c0 174 126 297 278 297c102 0 151 -56 167 -75h2v243h133zM319 446c-90 0 -160 -68 -160 -169c0 -96 65 -169 160 -169c94 0 162 71 162 169s-69 169 -162 169z" />
    <glyph glyph-name="e" unicode="e" horiz-adv-x="640" 
d="M607 218h-434c17 -68 74 -110 145 -110c43 0 91 12 124 52h150c-74 -176 -243 -178 -269 -178c-199 0 -293 164 -293 291s95 299 295 299c169 0 285 -130 285 -295c0 -20 0 -39 -3 -59zM171 336h300c-19 70 -78 110 -146 110c-73 0 -132 -44 -154 -110z" />
    <glyph glyph-name="f" unicode="f" horiz-adv-x="280" 
d="M57 0v436h-47v118h47v6c0 124 78 192 192 192h25v-133h-17c-46 0 -67 -31 -67 -59v-6h84v-118h-84v-436h-133z" />
    <glyph glyph-name="g" unicode="g" horiz-adv-x="660" 
d="M606 554v-470c0 -198 -144 -299 -298 -299c-131 0 -243 72 -277 203h153c24 -74 108 -77 124 -77c92 0 165 69 165 150v20h-2c-14 -21 -63 -87 -165 -87c-154 0 -280 131 -280 291c0 171 131 287 283 287c41 0 124 -9 173 -94h2v76h122zM320 446
c-106 0 -161 -78 -161 -160c0 -88 57 -166 161 -166c100 0 161 73 161 161c0 100 -64 165 -161 165z" />
    <glyph glyph-name="h" unicode="h" horiz-adv-x="600" 
d="M54 0v740h133v-228c41 49 102 60 143 60c128 0 216 -92 216 -248v-324h-133v294c0 124 -59 152 -111 152c-108 0 -115 -103 -115 -152v-294h-133z" />
    <glyph glyph-name="i" unicode="i" horiz-adv-x="240" 
d="M54 0v554h133v-554h-133zM54 618v122h133v-122h-133z" />
    <glyph glyph-name="j" unicode="j" horiz-adv-x="260" 
d="M206 554v-526c0 -202 -148 -213 -188 -213v129c55 -7 55 53 55 84v526h133zM73 618v122h133v-122h-133z" />
    <glyph glyph-name="k" unicode="k" horiz-adv-x="580" 
d="M54 0v740h133v-447l178 261h157l-200 -271l233 -283h-178l-190 259v-259h-133z" />
    <glyph glyph-name="l" unicode="l" horiz-adv-x="240" 
d="M54 0v740h133v-740h-133z" />
    <glyph glyph-name="m" unicode="m" horiz-adv-x="940" 
d="M54 0v554h122v-51h2c39 55 102 69 144 69c56 0 124 -24 162 -86c32 44 87 86 177 86c135 0 226 -92 226 -248v-324h-133v294c0 50 -6 152 -109 152c-102 0 -108 -102 -108 -152v-294h-133v294c0 50 -6 152 -109 152c-102 0 -108 -102 -108 -152v-294h-133z" />
    <glyph glyph-name="n" unicode="n" horiz-adv-x="600" 
d="M54 0v554h122v-51h2c18 23 62 69 152 69c128 0 216 -92 216 -248v-324h-133v294c0 124 -59 152 -111 152c-108 0 -115 -103 -115 -152v-294h-133z" />
    <glyph glyph-name="o" unicode="o" horiz-adv-x="640" 
d="M320 572c170 0 294 -134 294 -296c0 -161 -125 -294 -294 -294s-294 133 -294 294c0 162 124 296 294 296zM320 446c-99 0 -161 -80 -161 -170s63 -168 161 -168s161 78 161 168s-62 170 -161 170z" />
    <glyph glyph-name="p" unicode="p" horiz-adv-x="660" 
d="M54 -185v739h122v-72h2c47 77 135 90 178 90c151 0 278 -116 278 -295c0 -152 -102 -295 -278 -295c-45 0 -115 12 -167 78h-2v-245h-133zM342 446c-97 0 -163 -72 -163 -169c0 -106 68 -169 158 -169c95 0 164 72 164 170c0 74 -47 168 -159 168z" />
    <glyph glyph-name="q" unicode="q" horiz-adv-x="660" 
d="M606 554v-739h-133v245h-2c-50 -69 -126 -78 -167 -78c-163 0 -278 123 -278 295c0 176 129 295 277 295c114 0 163 -64 179 -90h2v72h122zM319 446c-95 0 -160 -69 -160 -169c0 -91 55 -169 160 -169c97 0 162 73 162 167c0 101 -66 171 -162 171z" />
    <glyph glyph-name="r" unicode="r" horiz-adv-x="320" 
d="M54 0v554h122v-50h2c26 48 75 73 128 68v-129c-121 1 -119 -114 -119 -144v-299h-133z" />
    <glyph glyph-name="s" unicode="s" horiz-adv-x="440" 
d="M19 174h133c2 -41 33 -66 73 -66c35 0 62 20 62 57c0 33 -22 46 -50 57c-19 8 -38 13 -57 19c-54 17 -141 52 -141 160c0 76 59 171 187 171c100 0 175 -69 179 -170h-133c-2 22 -16 44 -50 44c-36 0 -50 -23 -50 -47c0 -44 53 -54 85 -62c68 -16 163 -46 163 -164
c0 -107 -79 -191 -200 -191c-129 0 -200 93 -201 192z" />
    <glyph glyph-name="t" unicode="t" horiz-adv-x="300" 
d="M74 0v436h-65v118h65v186h133v-186h80v-118h-80v-436h-133z" />
    <glyph glyph-name="u" unicode="u" horiz-adv-x="600" 
d="M546 554v-554h-122v51h-2c-48 -60 -110 -69 -144 -69c-209 0 -224 185 -224 272v300h133v-282c0 -62 6 -164 113 -164s113 102 113 164v282h133z" />
    <glyph glyph-name="v" unicode="v" 
d="M225 0l-224 554h148l128 -364l128 364h148l-224 -554h-104z" />
    <glyph glyph-name="w" unicode="w" horiz-adv-x="799" 
d="M210 0l-200 554h141l102 -338l92 338h104l92 -338l102 338h141l-200 -554h-82l-105 359l-105 -359h-82z" />
    <glyph glyph-name="x" unicode="x" 
d="M4 0l187 284l-172 270h155l105 -166l105 166h155l-176 -270l193 -284h-164l-112 179l-112 -179h-164z" />
    <glyph glyph-name="y" unicode="y" horiz-adv-x="580" 
d="M417 554h151l-318 -739h-143l102 237l-203 502h151l127 -355z" />
    <glyph glyph-name="z" unicode="z" horiz-adv-x="460" 
d="M20 0v118l246 318h-218v118h377v-118l-246 -318h263v-118h-422z" />
    <glyph glyph-name="braceleft" unicode="{" horiz-adv-x="340" 
d="M36 261v90c29 1 52 16 65 35c17 24 18 48 18 74v146c0 37 1 79 38 108c29 23 64 26 91 26h56v-90h-10c-75 0 -72 -61 -72 -89v-127c0 -46 -8 -117 -90 -127v-2c82 -10 90 -81 90 -127v-127c0 -28 -3 -89 72 -89h10v-90h-56c-27 0 -62 3 -91 26c-37 29 -38 71 -38 108v146
c0 26 -1 50 -18 74c-13 19 -36 34 -65 35z" />
    <glyph glyph-name="bar" unicode="|" horiz-adv-x="600" 
d="M241 0v740h119v-740h-119z" />
    <glyph glyph-name="braceright" unicode="}" horiz-adv-x="340" 
d="M304 351v-90c-29 -1 -52 -16 -65 -35c-17 -24 -18 -48 -18 -74v-146c0 -37 -1 -79 -38 -108c-29 -23 -64 -26 -91 -26h-56v90h10c75 0 72 61 72 89v127c0 46 8 117 90 127v2c-82 10 -90 81 -90 127v127c0 28 3 89 -72 89h-10v90h56c27 0 62 -3 91 -26
c37 -29 38 -71 38 -108v-146c0 -26 1 -50 18 -74c13 -19 36 -34 65 -35z" />
    <glyph glyph-name="asciitilde" unicode="~" horiz-adv-x="600" 
d="M488 421l64 -73c-38 -70 -78 -117 -144 -117c-47 0 -99 24 -134 42c-22 11 -48 24 -75 24c-21 0 -58 -13 -87 -82l-64 74c41 87 96 124 149 124c34 0 74 -14 140 -45c20 -10 46 -21 70 -21c39 0 64 41 81 74z" />
    <glyph glyph-name="afii10051" unicode="&#x402;" horiz-adv-x="700" 
d="M145 0v607h-137v133h491v-133h-217v-152h143c183 0 245 -117 245 -228c0 -135 -101 -227 -245 -227h-50v133h51c63 0 107 35 107 94c0 60 -44 95 -107 95h-144v-322h-137z" />
    <glyph glyph-name="afii10052" unicode="&#x403;" horiz-adv-x="440" 
d="M68 0v740h370v-133h-233v-607h-137zM133 879l242 101l37 -110l-242 -90z" />
    <glyph glyph-name="quotesinglbase" unicode="&#x201a;" horiz-adv-x="280" 
d="M73 0v133h133v-128c0 -29 2 -74 -36 -109c-24 -22 -60 -35 -95 -36v67c31 0 57 20 57 56v17h-59z" />
    <glyph glyph-name="afii10100" unicode="&#x453;" horiz-adv-x="380" 
d="M54 554h314v-118h-181v-436h-133v554zM94 705l225 135l54 -102l-229 -125z" />
    <glyph glyph-name="quotedblbase" unicode="&#x201e;" horiz-adv-x="480" 
d="M70 0v133h133v-128c0 -29 2 -74 -36 -109c-24 -22 -60 -35 -95 -36v67c31 0 57 20 57 56v17h-59zM277 0v133h133v-128c0 -29 2 -74 -36 -109c-24 -22 -60 -35 -95 -36v67c31 0 57 20 57 56v17h-59z" />
    <glyph glyph-name="ellipsis" unicode="&#x2026;" horiz-adv-x="1000" 
d="M100 0v133h133v-133h-133zM433 0v133h133v-133h-133zM766 0v133h133v-133h-133z" />
    <glyph glyph-name="dagger" unicode="&#x2020;" 
d="M348 740v-186h161v-118h-161v-564h-133v564h-163v118h163v186h133z" />
    <glyph glyph-name="daggerdbl" unicode="&#x2021;" 
d="M346 740v-148h163v-118h-163v-97h163v-118h-163v-387h-133v387h-161v118h161v97h-161v118h161v148h133z" />
    <glyph glyph-name="accent" horiz-adv-x="2" 
d="M-429 705l225 135l54 -102l-229 -125z" />
    <glyph glyph-name="perthousand" unicode="&#x2030;" horiz-adv-x="1280" 
d="M223 0l306 740h102l-306 -740h-102zM21 573c0 99 80 180 180 180c98 0 179 -80 179 -180s-81 -180 -179 -180c-100 0 -180 81 -180 180zM132 573c0 -36 31 -69 68 -69c36 0 69 31 69 69s-32 69 -68 69c-37 0 -69 -32 -69 -69zM475 162c0 100 80 180 180 180
s180 -80 180 -180s-80 -180 -180 -180s-180 80 -180 180zM586 162c0 -38 31 -69 69 -69s69 31 69 69s-31 69 -69 69s-69 -31 -69 -69zM888 162c0 100 80 180 180 180s180 -80 180 -180s-80 -180 -180 -180s-180 80 -180 180zM999 162c0 -38 31 -69 69 -69s69 31 69 69
s-31 69 -69 69s-69 -31 -69 -69z" />
    <glyph glyph-name="afii10058" unicode="&#x409;" horiz-adv-x="1000" 
d="M488 0v514h-2l-308 -514h-161l471 740h137v-285h110c183 0 245 -117 245 -228c0 -135 -101 -227 -245 -227h-247zM625 322v-189h111c63 0 107 35 107 94c0 60 -44 95 -107 95h-111z" />
    <glyph glyph-name="guilsinglleft" unicode="&#x2039;" horiz-adv-x="240" 
d="M108 318l67 -58v-122l-139 130v100l139 130v-122z" />
    <glyph glyph-name="afii10059" unicode="&#x40a;" horiz-adv-x="980" 
d="M468 740h137v-285h110c183 0 245 -117 245 -228c0 -135 -101 -227 -245 -227h-247v322h-263v-322h-137v740h137v-285h263v285zM605 322v-189h111c63 0 107 35 107 94c0 60 -44 95 -107 95h-111z" />
    <glyph glyph-name="afii10061" unicode="&#x40c;" horiz-adv-x="620" 
d="M68 0v740h137v-321l230 321h164l-279 -364l279 -376h-164l-230 324v-324h-137zM213 879l242 101l37 -110l-242 -90z" />
    <glyph glyph-name="afii10060" unicode="&#x40b;" horiz-adv-x="720" 
d="M145 0v607h-137v133h491v-133h-217v-148h135c57 0 128 -4 180 -47c61 -50 67 -122 67 -176v-236h-137v218c0 20 2 59 -26 85c-23 21 -59 23 -83 23h-136v-326h-137z" />
    <glyph glyph-name="afii10145" unicode="&#x40f;" horiz-adv-x="679" 
d="M611 740v-740h-203v-185h-137v185h-203v740h137v-607h269v607h137z" />
    <glyph glyph-name="afii10099" unicode="&#x452;" horiz-adv-x="600" 
d="M54 0v595h-100v114h100v31h133v-31h267v-114h-267v-155c41 49 102 60 143 60c128 0 216 -92 216 -248v-204c0 -73 -15 -127 -65 -171c-48 -42 -118 -63 -183 -62v126c32 -2 115 5 115 107v170c0 55 -9 156 -111 156c-108 0 -115 -101 -115 -160v-214h-133z" />
    <glyph glyph-name="quoteleft" unicode="&#x2018;" horiz-adv-x="280" 
d="M206 613v-133h-133v128c0 29 -2 74 36 109c24 22 60 35 95 36v-67c-31 0 -57 -20 -57 -56v-17h59z" />
    <glyph glyph-name="quoteright" unicode="&#x2019;" horiz-adv-x="280" 
d="M73 606v133h133v-128c0 -29 2 -74 -36 -109c-24 -22 -60 -35 -95 -36v67c31 0 57 20 57 56v17h-59z" />
    <glyph glyph-name="quotedblleft" unicode="&#x201c;" horiz-adv-x="480" 
d="M410 613v-133h-133v128c0 29 -2 74 36 109c24 22 60 35 95 36v-67c-31 0 -57 -20 -57 -56v-17h59zM203 613v-133h-133v128c0 29 -2 74 36 109c24 22 60 35 95 36v-67c-31 0 -57 -20 -57 -56v-17h59z" />
    <glyph glyph-name="quotedblright" unicode="&#x201d;" horiz-adv-x="480" 
d="M70 607v133h133v-128c0 -29 2 -74 -36 -109c-24 -22 -60 -35 -95 -36v67c31 0 57 20 57 56v17h-59zM277 607v133h133v-128c0 -29 2 -74 -36 -109c-24 -22 -60 -35 -95 -36v67c31 0 57 20 57 56v17h-59z" />
    <glyph glyph-name="bullet" unicode="&#x2022;" horiz-adv-x="600" 
d="M100 318c0 110 90 200 200 200s200 -90 200 -200s-90 -200 -200 -200s-200 90 -200 200z" />
    <glyph glyph-name="endash" unicode="&#x2013;" horiz-adv-x="500" 
d="M0 259v118h500v-118h-500z" />
    <glyph glyph-name="emdash" unicode="&#x2014;" horiz-adv-x="1000" 
d="M0 377h1000v-118h-1000v118z" />
    <glyph glyph-name="Accent" horiz-adv-x="2" 
d="M-479 879l242 101l37 -110l-242 -90z" />
    <glyph glyph-name="trademark" unicode="&#x2122;" horiz-adv-x="1000" 
d="M929 740v-404h-88v326l-119 -326h-52l-119 326v-326h-88v404h142l91 -239l91 239h142zM414 740v-78h-123v-326h-97v326h-123v78h343z" />
    <glyph glyph-name="afii10106" unicode="&#x459;" horiz-adv-x="840" 
d="M374 0v386h-2l-206 -386h-154l315 554h180v-194h119c129 0 186 -86 186 -180c0 -113 -79 -180 -186 -180h-252zM507 242v-124h105c11 0 67 1 67 62c0 28 -13 62 -67 62h-105z" />
    <glyph glyph-name="guilsinglright" unicode="&#x203a;" horiz-adv-x="240" 
d="M132 318l-67 58v122l139 -130v-100l-139 -130v122z" />
    <glyph glyph-name="afii10107" unicode="&#x45a;" horiz-adv-x="860" 
d="M394 554h133v-194h119c129 0 186 -86 186 -180c0 -113 -79 -180 -186 -180h-252v242h-207v-242h-133v554h133v-194h207v194zM527 242v-124h105c11 0 67 1 67 62c0 28 -13 62 -67 62h-105z" />
    <glyph glyph-name="afii10109" unicode="&#x45c;" horiz-adv-x="580" 
d="M54 0v554h133v-254l198 254h158l-221 -260l233 -294h-168l-200 266v-266h-133zM194 705l225 135l54 -102l-229 -125z" />
    <glyph glyph-name="afii10108" unicode="&#x45b;" horiz-adv-x="600" 
d="M54 0v595h-100v114h100v31h133v-31h267v-114h-267v-155c41 49 102 60 143 60c128 0 216 -92 216 -248v-252h-133v222c0 124 -59 152 -111 152c-108 0 -115 -103 -115 -152v-222h-133z" />
    <glyph glyph-name="afii10193" unicode="&#x45f;" horiz-adv-x="580" 
d="M54 554h133v-436h206v436h133v-554h-171v-160h-130v160h-171v554z" />
    <glyph glyph-name="afii10062" unicode="&#x40e;" horiz-adv-x="700" 
d="M691 740l-335 -740h-150l87 188l-284 552h166l195 -394l171 394h150zM190 920h115c5 -35 35 -50 65 -50s60 15 65 50h115c-13 -80 -80 -140 -180 -140s-167 60 -180 140z" />
    <glyph glyph-name="afii10110" unicode="&#x45e;" horiz-adv-x="580" 
d="M417 554h151l-318 -739h-143l102 237l-203 502h151l127 -355zM130 756h100c8 -31 34 -46 65 -46s57 15 65 46h100c-11 -76 -74 -136 -165 -136s-154 60 -165 136z" />
    <glyph glyph-name="afii10057" unicode="&#x408;" horiz-adv-x="480" 
d="M412 740v-522c0 -45 -1 -236 -199 -236c-110 0 -203 79 -206 188h137c4 -34 23 -55 63 -55c67 0 68 57 68 94v531h137z" />
    <glyph glyph-name="currency" unicode="&#xa4;" 
d="M27 227l44 44c-30 50 -37 95 -37 128c0 40 7 85 37 131l-44 43l79 80l44 -44c53 34 99 38 129 38c63 0 104 -18 134 -38l44 44l77 -80l-44 -43c13 -19 38 -63 38 -130c0 -29 -4 -77 -38 -129l44 -44l-77 -79l-44 44c-46 -32 -90 -39 -129 -39c-64 0 -104 17 -134 39
l-44 -44zM404 400c0 66 -53 123 -123 123s-123 -57 -123 -123s53 -123 123 -123s123 57 123 123z" />
    <glyph glyph-name="afii10050" unicode="&#x490;" horiz-adv-x="460" 
d="M68 0v740h253v130h137v-263h-253v-607h-137z" />
    <glyph glyph-name="brokenbar" unicode="&#xa6;" horiz-adv-x="600" 
d="M243 0v296h119v-296h-119zM243 444v296h119v-296h-119z" />
    <glyph glyph-name="section" unicode="&#xa7;" 
d="M499 565h-125c-2 49 -39 71 -81 72c-55 2 -71 -33 -71 -55c0 -35 31 -56 68 -75l143 -72c24 -12 96 -51 96 -145c0 -37 -14 -87 -77 -140c39 -33 49 -83 49 -123c0 -98 -81 -183 -214 -183c-121 0 -223 75 -229 211h132c0 -57 38 -94 93 -95c63 -1 88 36 88 67
c0 42 -38 61 -63 74l-158 83c-66 34 -110 79 -110 163c0 23 4 102 81 146c-23 30 -29 65 -29 94c0 72 51 166 202 166c126 0 203 -81 205 -188zM221 289l152 -78c16 17 32 40 32 64c0 35 -26 51 -66 71l-147 76c-16 -14 -28 -36 -28 -64c0 -13 7 -43 57 -69z" />
    <glyph glyph-name="afii10023" unicode="&#x401;" horiz-adv-x="520" 
d="M68 0v740h397v-133h-260v-171h249v-133h-249v-170h260v-133h-397zM95 920h137v-126h-137v126zM301 920h137v-126h-137v126z" />
    <glyph glyph-name="copyright" unicode="&#xa9;" horiz-adv-x="740" 
d="M371 -18c-213 0 -386 173 -386 386c0 212 172 385 386 385c212 0 385 -173 385 -385c0 -214 -173 -386 -385 -386zM371 54c171 0 313 139 313 314c0 173 -141 313 -313 313c-174 0 -314 -141 -314 -313c0 -173 140 -314 314 -314zM577 463h-90c-23 34 -62 54 -111 54
c-81 0 -139 -67 -139 -145c0 -81 61 -147 139 -147c33 0 79 11 107 50h92c-36 -74 -104 -126 -198 -126c-150 0 -220 122 -220 223c0 125 96 221 218 221c94 0 167 -50 202 -130z" />
    <glyph glyph-name="afii10053" unicode="&#x404;" horiz-adv-x="775" 
d="M755 528h-156c-67 87 -160 92 -199 92c-129 0 -206 -88 -233 -185h374v-130h-374c29 -121 129 -190 234 -190c76 0 147 28 191 86h159c-59 -129 -177 -219 -338 -219c-258 0 -383 215 -383 388c0 172 126 383 379 383c160 0 287 -85 346 -225z" />
    <glyph glyph-name="guillemotleft" unicode="&#xab;" horiz-adv-x="460" 
d="M108 318l67 -59v-123l-139 131v101l139 130v-123zM321 318l67 -59v-123l-139 131v101l139 130v-123z" />
    <glyph glyph-name="logicalnot" unicode="&#xac;" horiz-adv-x="600" 
d="M434 182v173h-386v118h504v-291h-118z" />
    <glyph glyph-name="hyphen" unicode="-" horiz-adv-x="420" 
d="M71 377h278v-118h-278v118z" />
    <glyph glyph-name="hyphen" unicode="&#xad;" horiz-adv-x="420" 
d="M71 377h278v-118h-278v118z" />
    <glyph glyph-name="registered" unicode="&#xae;" horiz-adv-x="740" 
d="M371 -18c-213 0 -386 173 -386 386c0 212 172 385 386 385c212 0 385 -173 385 -385c0 -214 -173 -386 -385 -386zM371 54c171 0 313 139 313 314c0 173 -141 313 -313 313c-174 0 -314 -141 -314 -313c0 -173 140 -314 314 -314zM242 152v427h125
c144 0 161 -93 161 -135c0 -67 -46 -130 -116 -134l116 -158h-98l-107 158h-1v-158h-80zM322 503v-127h47c67 0 79 37 79 63c0 27 -12 64 -79 64h-47z" />
    <glyph glyph-name="afii10056" unicode="&#x407;" horiz-adv-x="340" 
d="M102 0v740h137v-740h-137zM9 920h137v-126h-137v126zM195 920h137v-126h-137v126z" />
    <glyph glyph-name="degree" unicode="&#xb0;" horiz-adv-x="400" 
d="M350 590c0 -82 -68 -150 -150 -150c-83 0 -150 68 -150 150c0 83 67 150 150 150c82 0 150 -68 150 -150zM290 590c0 49 -40 90 -91 90c-49 0 -89 -41 -89 -90s41 -90 90 -90s90 41 90 90z" />
    <glyph glyph-name="plusminus" unicode="&#xb1;" horiz-adv-x="600" 
d="M242 433v137h116v-137h194v-116h-194v-143h-116v143h-194v116h194zM48 0v116h504v-116h-504z" />
    <glyph glyph-name="afii10055" unicode="&#x406;" horiz-adv-x="280" 
d="M71 0v740h137v-740h-137z" />
    <glyph glyph-name="afii10103" unicode="&#x456;" horiz-adv-x="240" 
d="M54 0v554h133v-554h-133zM54 618v122h133v-122h-133z" />
    <glyph glyph-name="afii10098" unicode="&#x491;" horiz-adv-x="400" 
d="M54 554h204v116h130v-234h-201v-436h-133v554z" />
    <glyph glyph-name="mu" unicode="&#xb5;" horiz-adv-x="576" 
d="M48 554h133v-276c0 -61 2 -170 106 -170c103 0 108 106 108 170v276h133v-554h-122v59h-2c-26 -46 -74 -77 -130 -77c-42 0 -74 17 -93 31v-198h-133v739z" />
    <glyph glyph-name="mu" unicode="&#x3bc;" horiz-adv-x="576" 
d="M48 554h133v-276c0 -61 2 -170 106 -170c103 0 108 106 108 170v276h133v-554h-122v59h-2c-26 -46 -74 -77 -130 -77c-42 0 -74 17 -93 31v-198h-133v739z" />
    <glyph glyph-name="paragraph" unicode="&#xb6;" horiz-adv-x="600" 
d="M242 -128v458c-114 1 -205 82 -205 204c0 124 89 206 222 206h268v-868h-103v760h-82v-760h-100z" />
    <glyph glyph-name="periodcentered" unicode="&#xb7;" horiz-adv-x="250" 
d="M59 251v133h133v-133h-133z" />
    <glyph glyph-name="periodcentered" unicode="&#x2219;" horiz-adv-x="250" 
d="M59 251v133h133v-133h-133z" />
    <glyph glyph-name="afii10071" unicode="&#x451;" horiz-adv-x="640" 
d="M607 218h-434c17 -68 74 -110 145 -110c43 0 91 12 124 52h150c-74 -176 -243 -178 -269 -178c-199 0 -293 164 -293 291s95 299 295 299c169 0 285 -130 285 -295c0 -20 0 -39 -3 -59zM171 336h300c-19 70 -78 110 -146 110c-73 0 -132 -44 -154 -110zM154 740h133v-120
h-133v120zM364 740h133v-120h-133v120z" />
    <glyph glyph-name="afii61352" unicode="&#x2116;" horiz-adv-x="1100" 
d="M70 0v740h137l325 -500v500h137v-740h-137l-325 500v-500h-137zM719 560c0 99 80 180 180 180c98 0 179 -80 179 -180s-81 -180 -179 -180c-100 0 -180 81 -180 180zM819 560c0 -43 36 -80 79 -80s80 36 80 80s-36 80 -79 80c-44 0 -80 -36 -80 -80zM733 326h330v-120
h-330v120z" />
    <glyph glyph-name="afii10101" unicode="&#x454;" horiz-adv-x="640" 
d="M460 180h150c-41 -118 -139 -198 -275 -198c-204 0 -305 159 -305 299c0 131 97 291 300 291c141 0 244 -83 280 -202h-150c-34 73 -110 76 -132 76c-80 0 -139 -47 -155 -110h249v-118h-249c34 -108 144 -110 157 -110c80 0 117 49 130 72z" />
    <glyph glyph-name="guillemotright" unicode="&#xbb;" horiz-adv-x="460" 
d="M353 318l-68 57v123l139 -130v-101l-139 -131v123zM140 318l-68 57v123l139 -130v-101l-139 -131v123z" />
    <glyph glyph-name="afii10105" unicode="&#x458;" horiz-adv-x="260" 
d="M206 554v-526c0 -202 -148 -213 -188 -213v129c55 -7 55 53 55 84v526h133zM73 618v122h133v-122h-133z" />
    <glyph glyph-name="afii10054" unicode="&#x405;" horiz-adv-x="520" 
d="M14 208h143c3 -58 47 -93 99 -93c60 0 100 40 100 93c0 103 -103 110 -180 143c-112 47 -135 134 -135 192c0 97 75 210 220 210c141 0 209 -108 214 -210h-141c0 37 -23 77 -77 77c-55 0 -79 -38 -79 -78c0 -77 79 -79 165 -114c35 -14 150 -65 150 -212
c0 -131 -99 -234 -240 -234c-110 0 -238 75 -239 226z" />
    <glyph glyph-name="afii10102" unicode="&#x455;" horiz-adv-x="440" 
d="M19 174h133c2 -41 33 -66 73 -66c35 0 62 20 62 57c0 33 -22 46 -50 57c-19 8 -38 13 -57 19c-54 17 -141 52 -141 160c0 76 59 171 187 171c100 0 175 -69 179 -170h-133c-2 22 -16 44 -50 44c-36 0 -50 -23 -50 -47c0 -25 17 -39 38 -48c15 -7 31 -10 47 -14
c68 -16 163 -46 163 -164c0 -107 -79 -191 -200 -191c-129 0 -200 93 -201 192z" />
    <glyph glyph-name="afii10104" unicode="&#x457;" horiz-adv-x="340" 
d="M104 0v554h133v-554h-133zM19 740h133v-120h-133v120zM189 740h133v-120h-133v120z" />
    <glyph glyph-name="afii10017" unicode="&#x410;" horiz-adv-x="740" 
d="M7 0l308 740h110l308 -740h-151l-76 191h-272l-76 -191h-151zM286 324h168l-84 216z" />
    <glyph glyph-name="afii10018" unicode="&#x411;" horiz-adv-x="600" 
d="M68 740h432v-133h-295v-152h118c236 0 245 -190 245 -228c0 -135 -100 -227 -245 -227h-255v740zM205 322v-189h119c75 0 107 47 107 94c0 35 -21 95 -107 95h-119z" />
    <glyph glyph-name="afii10019" unicode="&#x412;" horiz-adv-x="580" 
d="M68 0v740h178c46 0 257 -1 257 -195c0 -92 -61 -130 -81 -141c80 -27 126 -96 126 -179c0 -107 -58 -225 -295 -225h-185zM205 133h89c16 0 117 1 117 93c0 28 -10 96 -117 96h-89v-189zM205 455h64c90 0 97 57 97 76c0 72 -67 76 -97 76h-64v-152z" />
    <glyph glyph-name="afii10020" unicode="&#x413;" horiz-adv-x="440" 
d="M68 0v740h370v-133h-233v-607h-137z" />
    <glyph glyph-name="afii10021" unicode="&#x414;" horiz-adv-x="820" 
d="M471 740l274 -607h69v-273h-137v140h-534v-140h-137v273h71l274 607h120zM228 133h366l-183 417z" />
    <glyph glyph-name="afii10022" unicode="&#x415;" horiz-adv-x="520" 
d="M68 0v740h397v-133h-260v-171h249v-133h-249v-170h260v-133h-397z" />
    <glyph glyph-name="afii10024" unicode="&#x416;" horiz-adv-x="940" 
d="M401 0v324l-216 -324h-164l265 380l-259 360h158l216 -321v321h137v-321l216 321h158l-259 -356l265 -384h-164l-216 324v-324h-137z" />
    <glyph glyph-name="afii10025" unicode="&#x417;" 
d="M54 548c1 112 76 205 229 205c129 0 223 -79 223 -203c0 -75 -45 -133 -106 -161c68 -17 130 -77 130 -182c0 -136 -105 -218 -255 -218c-141 0 -255 88 -245 239h137c0 -39 20 -106 113 -106c83 0 113 46 113 95s-29 99 -103 99h-70v133h60c56 0 89 31 89 83
c0 56 -33 88 -87 88c-50 0 -88 -26 -91 -72h-137z" />
    <glyph glyph-name="afii10026" unicode="&#x418;" horiz-adv-x="740" 
d="M68 740h137v-520l330 520h137v-740h-137v520l-330 -520h-137v740z" />
    <glyph glyph-name="afii10027" unicode="&#x419;" horiz-adv-x="740" 
d="M68 740h137v-520l330 520h137v-740h-137v520l-330 -520h-137v740zM190 920h115c5 -35 35 -50 65 -50s60 15 65 50h115c-13 -80 -80 -140 -180 -140s-167 60 -180 140z" />
    <glyph glyph-name="afii10028" unicode="&#x41a;" horiz-adv-x="620" 
d="M68 0v740h137v-321l230 321h164l-279 -364l279 -376h-164l-230 324v-324h-137z" />
    <glyph glyph-name="afii10029" unicode="&#x41b;" horiz-adv-x="720" 
d="M420 740l293 -740h-151l-202 550l-202 -550h-151l293 740h120z" />
    <glyph glyph-name="afii10030" unicode="&#x41c;" horiz-adv-x="920" 
d="M68 0v740h186l206 -566l206 566h186v-740h-137v554l-197 -554h-116l-197 554v-554h-137z" />
    <glyph glyph-name="afii10031" unicode="&#x41d;" horiz-adv-x="680" 
d="M68 0v740h137v-297h270v297h137v-740h-137v310h-270v-310h-137z" />
    <glyph glyph-name="afii10032" unicode="&#x41e;" horiz-adv-x="840" 
d="M420 753c221 0 390 -173 390 -387s-170 -384 -390 -384s-390 170 -390 384s169 387 390 387zM419 115c147 0 254 116 254 254s-108 251 -253 251s-253 -113 -253 -251c0 -140 109 -254 252 -254z" />
    <glyph glyph-name="afii10033" unicode="&#x41f;" horiz-adv-x="680" 
d="M68 0v740h544v-740h-137v607h-270v-607h-137z" />
    <glyph glyph-name="afii10034" unicode="&#x420;" 
d="M68 0v740h207c237 0 265 -161 265 -231c0 -93 -50 -229 -265 -229h-70v-280h-137zM205 607v-194h81c36 0 117 6 117 97s-81 97 -117 97h-81z" />
    <glyph glyph-name="afii10035" unicode="&#x421;" horiz-adv-x="780" 
d="M760 528h-156c-37 47 -98 92 -186 92c-148 0 -251 -120 -251 -250c0 -139 110 -255 252 -255c66 0 132 26 178 86h159c-61 -130 -180 -219 -341 -219c-259 0 -385 218 -385 388c0 165 125 383 387 383c153 0 281 -83 343 -225z" />
    <glyph glyph-name="afii10036" unicode="&#x422;" horiz-adv-x="420" 
d="M142 0v607h-137v133h411v-133h-137v-607h-137z" />
    <glyph glyph-name="afii10037" unicode="&#x423;" horiz-adv-x="700" 
d="M691 740l-335 -740h-150l87 188l-284 552h166l195 -394l171 394h150z" />
    <glyph glyph-name="afii10038" unicode="&#x424;" horiz-adv-x="860" 
d="M362 -37v104c-193 2 -332 135 -332 320s139 318 332 320v93h137v-93c193 -2 332 -135 332 -320s-139 -318 -332 -320v-104h-137zM362 200v374c-121 1 -195 -86 -195 -187s74 -188 195 -187zM499 574v-374c121 -1 195 86 195 187s-74 188 -195 187z" />
    <glyph glyph-name="afii10039" unicode="&#x425;" horiz-adv-x="680" 
d="M5 0l255 370l-255 370h160l175 -257l176 257h160l-256 -370l256 -370h-160l-176 256l-175 -256h-160z" />
    <glyph glyph-name="afii10040" unicode="&#x426;" horiz-adv-x="700" 
d="M612 740v-607h84v-273h-137v140h-491v740h137v-607h270v607h137z" />
    <glyph glyph-name="afii10041" unicode="&#x427;" horiz-adv-x="620" 
d="M552 740v-740h-137v280h-126c-57 0 -128 4 -180 47c-61 50 -67 122 -67 176v237h137v-219c0 -20 -2 -59 26 -85c23 -21 59 -23 83 -23h127v327h137z" />
    <glyph glyph-name="afii10042" unicode="&#x428;" horiz-adv-x="1000" 
d="M68 740h137v-607h226v607h137v-607h226v607h137v-740h-863v740z" />
    <glyph glyph-name="afii10043" unicode="&#x429;" horiz-adv-x="1020" 
d="M68 740h137v-607h226v607h137v-607h226v607h137v-607h84v-273h-137v140h-810v740z" />
    <glyph glyph-name="afii10044" unicode="&#x42a;" horiz-adv-x="680" 
d="M8 740h297v-285h110c183 0 245 -117 245 -228c0 -135 -101 -227 -245 -227h-247v607h-160v133zM305 322v-189h111c63 0 107 35 107 94c0 60 -44 95 -107 95h-111z" />
    <glyph glyph-name="afii10045" unicode="&#x42b;" horiz-adv-x="840" 
d="M68 740h137v-285h110c183 0 245 -117 245 -228c0 -135 -101 -227 -245 -227h-247v740zM205 322v-189h111c63 0 107 35 107 94c0 60 -44 95 -107 95h-111zM635 0v740h137v-740h-137z" />
    <glyph glyph-name="afii10046" unicode="&#x42c;" horiz-adv-x="580" 
d="M68 740h137v-285h110c183 0 245 -117 245 -228c0 -135 -101 -227 -245 -227h-247v740zM205 322v-189h111c63 0 107 35 107 94c0 60 -44 95 -107 95h-111z" />
    <glyph glyph-name="afii10047" unicode="&#x42d;" horiz-adv-x="775" 
d="M176 528h-156c59 140 186 225 346 225c213 0 379 -163 379 -383c0 -173 -119 -388 -383 -388c-161 0 -278 89 -338 219h159c44 -58 115 -86 191 -86c107 0 209 69 234 190h-334v130h334c-26 99 -103 185 -233 185c-40 0 -132 -5 -199 -92z" />
    <glyph glyph-name="afii10048" unicode="&#x42e;" horiz-adv-x="1120" 
d="M205 445h123c36 193 205 308 377 308c218 0 385 -173 385 -387s-168 -384 -385 -384c-164 0 -351 110 -381 326h-119v-308h-137v740h137v-295zM704 115c143 0 249 117 249 254c0 138 -108 251 -248 251s-248 -113 -248 -251c0 -139 108 -254 247 -254z" />
    <glyph glyph-name="afii10049" unicode="&#x42f;" horiz-adv-x="600" 
d="M532 740v-740h-137v287h-2l-198 -287h-160l204 273c-114 14 -199 96 -199 225c0 73 29 242 278 242h214zM395 607h-81c-109 0 -137 -56 -137 -110s28 -110 137 -110h81v220z" />
    <glyph glyph-name="afii10065" unicode="&#x430;" horiz-adv-x="660" 
d="M606 554v-554h-122v75h-2c-64 -88 -156 -93 -185 -93c-141 0 -271 111 -271 290c0 174 122 300 275 300c79 0 141 -33 181 -96h2v78h122zM322 446c-96 0 -163 -74 -163 -174c0 -94 66 -164 163 -164c95 0 159 69 159 170c0 96 -63 168 -159 168z" />
    <glyph glyph-name="afii10066" unicode="&#x431;" horiz-adv-x="640" 
d="M591 740v-118l-215 -4c-74 -1 -212 -19 -236 -174h2c45 64 116 102 209 102c152 0 263 -105 263 -269c0 -172 -120 -295 -299 -295c-264 0 -289 231 -289 346c0 399 282 407 353 408zM323 428c-90 0 -158 -62 -158 -160c0 -99 64 -160 158 -160c96 0 158 65 158 160
c0 101 -66 160 -158 160z" />
    <glyph glyph-name="afii10067" unicode="&#x432;" horiz-adv-x="500" 
d="M54 554h244c113 0 160 -77 160 -145c0 -53 -37 -95 -84 -115c64 -18 104 -69 104 -129c0 -86 -62 -165 -187 -165h-237v554zM187 440v-100h87c27 0 54 16 54 50c0 22 -12 50 -54 50h-87zM187 226v-112h95c54 0 66 34 66 56c0 15 -6 56 -66 56h-95z" />
    <glyph glyph-name="afii10068" unicode="&#x433;" horiz-adv-x="380" 
d="M54 554h314v-118h-181v-436h-133v554z" />
    <glyph glyph-name="afii10069" unicode="&#x434;" horiz-adv-x="680" 
d="M400 554l203 -436h66v-258h-130v140h-398v-140h-130v258h66l203 436h120zM227 118h226l-113 256z" />
    <glyph glyph-name="afii10070" unicode="&#x435;" horiz-adv-x="640" 
d="M607 218h-434c17 -68 74 -110 145 -110c43 0 91 12 124 52h150c-74 -176 -243 -178 -269 -178c-199 0 -293 164 -293 291s95 299 295 299c169 0 285 -130 285 -295c0 -20 0 -39 -3 -59zM171 336h300c-19 70 -78 110 -146 110c-73 0 -132 -44 -154 -110z" />
    <glyph glyph-name="afii10072" unicode="&#x436;" horiz-adv-x="840" 
d="M354 0v266l-180 -266h-157l202 290l-190 264h157l168 -254v254h133v-254l168 254h157l-190 -264l202 -290h-157l-180 266v-266h-133z" />
    <glyph glyph-name="afii10073" unicode="&#x437;" horiz-adv-x="460" 
d="M172 390h-133c6 96 72 182 193 182c132 0 189 -77 189 -155c0 -55 -37 -100 -90 -118c67 -17 100 -73 100 -136c0 -106 -78 -181 -202 -181c-166 0 -206 120 -204 205h133c0 -40 22 -79 76 -79c7 0 64 1 64 58c0 56 -46 58 -59 58h-31v114h25c45 0 58 28 58 54
c0 50 -38 54 -56 54c-37 0 -60 -24 -63 -56z" />
    <glyph glyph-name="afii10074" unicode="&#x438;" horiz-adv-x="620" 
d="M54 554h133v-359l246 359h133v-554h-133v359l-246 -359h-133v554z" />
    <glyph glyph-name="afii10075" unicode="&#x439;" horiz-adv-x="620" 
d="M54 554h133v-359l246 359h133v-554h-133v359l-246 -359h-133v554zM145 756h100c8 -31 34 -46 65 -46s57 15 65 46h100c-11 -76 -74 -136 -165 -136s-154 60 -165 136z" />
    <glyph glyph-name="afii10076" unicode="&#x43a;" horiz-adv-x="580" 
d="M54 0v554h133v-254l198 254h158l-221 -260l233 -294h-168l-200 266v-266h-133z" />
    <glyph glyph-name="afii10077" unicode="&#x43b;" horiz-adv-x="580" 
d="M350 554l226 -554h-148l-138 374l-138 -374h-148l226 554h120z" />
    <glyph glyph-name="afii10078" unicode="&#x43c;" horiz-adv-x="780" 
d="M54 0v554h193l143 -394l143 394h193v-554h-133v407l-148 -407h-110l-148 407v-407h-133z" />
    <glyph glyph-name="afii10079" unicode="&#x43d;" horiz-adv-x="580" 
d="M54 554h133v-204h206v204h133v-554h-133v232h-206v-232h-133v554z" />
    <glyph glyph-name="afii10080" unicode="&#x43e;" horiz-adv-x="640" 
d="M320 572c170 0 294 -134 294 -296c0 -161 -125 -294 -294 -294s-294 133 -294 294c0 162 124 296 294 296zM320 446c-99 0 -161 -80 -161 -170s63 -168 161 -168s161 78 161 168s-62 170 -161 170z" />
    <glyph glyph-name="afii10081" unicode="&#x43f;" horiz-adv-x="580" 
d="M54 554h472v-554h-133v436h-206v-436h-133v554z" />
    <glyph glyph-name="afii10082" unicode="&#x440;" horiz-adv-x="660" 
d="M54 -185v739h122v-72h2c47 77 135 90 178 90c151 0 278 -116 278 -295c0 -152 -102 -295 -278 -295c-45 0 -115 12 -167 78h-2v-245h-133zM342 446c-97 0 -163 -72 -163 -169c0 -106 68 -169 158 -169c95 0 164 72 164 170c0 74 -47 168 -159 168z" />
    <glyph glyph-name="afii10083" unicode="&#x441;" horiz-adv-x="640" 
d="M460 180h150c-41 -117 -136 -198 -274 -198c-208 0 -306 161 -306 299c0 129 94 291 301 291c140 0 242 -82 279 -202h-150c-26 51 -73 76 -131 76c-106 0 -166 -78 -166 -167c0 -95 64 -171 166 -171c23 0 94 4 131 72z" />
    <glyph glyph-name="afii10084" unicode="&#x442;" horiz-adv-x="420" 
d="M10 554h399v-118h-133v-436h-133v436h-133v118z" />
    <glyph glyph-name="afii10085" unicode="&#x443;" horiz-adv-x="580" 
d="M417 554h151l-318 -739h-143l102 237l-203 502h151l127 -355z" />
    <glyph glyph-name="afii10086" unicode="&#x444;" horiz-adv-x="820" 
d="M344 740h133v-168c192 -5 314 -144 314 -295c0 -122 -100 -286 -314 -295v-167h-133v167c-214 9 -314 173 -314 295c0 151 122 290 314 295v168zM344 100v354c-127 -4 -181 -94 -181 -177c0 -104 84 -174 181 -177zM477 454v-354c97 3 181 73 181 177
c0 83 -54 173 -181 177z" />
    <glyph glyph-name="afii10087" unicode="&#x445;" 
d="M4 0l187 284l-172 270h155l105 -166l105 166h155l-176 -270l193 -284h-164l-112 179l-112 -179h-164z" />
    <glyph glyph-name="afii10088" unicode="&#x446;" horiz-adv-x="620" 
d="M54 554h133v-436h208v436h133v-436h84v-258h-130v140h-428v554z" />
    <glyph glyph-name="afii10089" unicode="&#x447;" horiz-adv-x="520" 
d="M466 554v-554h-133v190h-78c-234 0 -219 131 -219 207v157h133v-157c0 -37 -3 -89 86 -89h78v246h133z" />
    <glyph glyph-name="afii10090" unicode="&#x448;" horiz-adv-x="840" 
d="M54 554h133v-436h168v436h133v-436h168v436h133v-554h-735v554z" />
    <glyph glyph-name="afii10091" unicode="&#x449;" horiz-adv-x="880" 
d="M54 554h133v-436h168v436h133v-436h168v436h133v-436h84v-258h-130v140h-689v554z" />
    <glyph glyph-name="afii10092" unicode="&#x44a;" horiz-adv-x="600" 
d="M5 554h262v-194h119c129 0 186 -86 186 -180c0 -113 -79 -180 -186 -180h-252v436h-129v118zM267 242v-124h105c11 0 67 1 67 62c0 28 -13 62 -67 62h-105z" />
    <glyph glyph-name="afii10093" unicode="&#x44b;" horiz-adv-x="740" 
d="M54 554h133v-194h119c129 0 186 -86 186 -180c0 -113 -79 -180 -186 -180h-252v554zM187 242v-124h105c11 0 67 1 67 62c0 28 -13 62 -67 62h-105zM553 0v554h133v-554h-133z" />
    <glyph glyph-name="afii10094" unicode="&#x44c;" horiz-adv-x="520" 
d="M54 554h133v-194h119c129 0 186 -86 186 -180c0 -113 -79 -180 -186 -180h-252v554zM187 242v-124h105c11 0 67 1 67 62c0 28 -13 62 -67 62h-105z" />
    <glyph glyph-name="afii10095" unicode="&#x44d;" horiz-adv-x="640" 
d="M30 180h150c35 -67 101 -72 130 -72c85 0 139 47 159 110h-229v118h229c-23 77 -90 110 -157 110c-23 0 -97 -5 -132 -76h-150c36 120 138 202 280 202c204 0 300 -159 300 -291c0 -140 -101 -299 -305 -299c-136 0 -234 80 -275 198z" />
    <glyph glyph-name="afii10096" unicode="&#x44e;" horiz-adv-x="880" 
d="M187 354h78c34 127 147 218 295 218c173 0 294 -134 294 -296c0 -163 -122 -294 -294 -294c-162 0 -275 108 -295 246h-78v-228h-133v554h133v-200zM560 446c-98 0 -162 -79 -162 -170s64 -168 162 -168s161 78 161 168s-62 170 -161 170z" />
    <glyph glyph-name="afii10097" unicode="&#x44f;" horiz-adv-x="540" 
d="M486 554v-554h-133v213l-164 -213h-166l167 196c-92 11 -147 85 -147 174c0 95 71 184 202 184h241zM353 297v139h-103c-46 0 -74 -29 -74 -73c0 -45 36 -66 74 -66h103z" />
    <glyph glyph-name="Euro" unicode="&#x20ac;" 
d="M516 714v-134c-23 24 -68 48 -137 48c-88 0 -135 -46 -149 -130h254l-32 -99h-234v-28c0 -12 0 -25 1 -34h212l-32 -98h-168c14 -86 63 -132 149 -132c66 0 111 23 136 47v-135c-19 -15 -73 -36 -156 -36c-142 0 -235 80 -261 256h-81l32 98h39c-1 9 -1 20 -1 34
c0 11 0 20 1 28h-71l32 99h47c26 153 104 256 263 256c75 0 133 -23 156 -40z" />
    </font>
</defs>
</svg>
